<svg width="27" height="27" viewBox="0 0 27 27" fill="none" xmlns="http://www.w3.org/2000/svg">
<path d="M23.0474 3.91355C17.7772 -1.30449 9.22277 -1.30449 3.95261 3.91355C-1.31754 9.13158 -1.31754 17.6014 3.95261 22.8195C9.22277 28.0375 17.7772 28.0375 23.0474 22.8195C28.3175 17.6014 28.3175 9.13158 23.0474 3.91355ZM16.3642 18.093L13.5 15.2571L10.6358 18.093C10.1107 18.6129 9.25141 18.6129 8.72631 18.093C8.2012 17.5731 8.2012 16.7223 8.72631 16.2024L11.5905 13.3665L8.72631 10.5306C8.2012 10.0107 8.2012 9.15994 8.72631 8.64003C9.25141 8.12012 10.1107 8.12012 10.6358 8.64003L13.5 11.4759L16.3642 8.64003C16.8893 8.12012 17.7486 8.12012 18.2737 8.64003C18.7988 9.15994 18.7988 10.0107 18.2737 10.5306L15.4095 13.3665L18.2737 16.2024C18.7988 16.7223 18.7988 17.5731 18.2737 18.093C17.7486 18.6129 16.8893 18.6129 16.3642 18.093Z" fill="white" fill-opacity="0.5"/>
</svg>
