<svg width="28" height="28" viewBox="0 0 28 28" fill="none" xmlns="http://www.w3.org/2000/svg">
<path d="M14 0C6.272 0 0 6.20997 0 13.8615C0 21.5131 6.272 27.7231 14 27.7231C21.728 27.7231 28 21.5131 28 13.8615C28 6.20997 21.728 0 14 0ZM14 20.7923C13.23 20.7923 12.6 20.1685 12.6 19.4062V13.8615C12.6 13.0992 13.23 12.4754 14 12.4754C14.77 12.4754 15.4 13.0992 15.4 13.8615V19.4062C15.4 20.1685 14.77 20.7923 14 20.7923ZM15.4 9.70308H12.6V6.93077H15.4V9.70308Z" fill="white" fill-opacity="0.5"/>
</svg>
