<svg width="91" height="91" viewBox="0 0 91 91" fill="none" xmlns="http://www.w3.org/2000/svg">
<path d="M45.5 55.6111C51.0763 55.6111 55.6112 60.1459 55.6112 65.7222H65.7223C65.7223 54.5722 56.6501 45.5 45.5 45.5C34.35 45.5 25.2778 54.5722 25.2778 65.7222H35.3889C35.3889 60.1459 39.9238 55.6111 45.5 55.6111Z" fill="#D85140"/>
<path d="M45.5 91C70.6286 91 91 70.6286 91 45.5C91 20.3714 70.6286 0 45.5 0C20.3714 0 0 20.3714 0 45.5C0 70.6286 20.3714 91 45.5 91ZM45.5 10.1111C65.0144 10.1111 80.8889 25.9856 80.8889 45.5C80.8889 65.0119 65.0144 80.8889 45.5 80.8889C25.9856 80.8889 10.1111 65.0119 10.1111 45.5C10.1111 25.9856 25.9856 10.1111 45.5 10.1111Z" fill="#D85140"/>
<path d="M53.3488 34.8556L58.4043 37.3833C59.1323 37.7473 59.9033 37.9167 60.6616 37.9167C62.517 37.9167 64.3016 36.8955 65.1889 35.1235C66.4376 32.6261 65.4265 29.5902 62.9265 28.339L57.871 25.8112C55.3659 24.5625 52.3377 25.5761 51.0864 28.0735C49.8402 30.571 50.8513 33.6068 53.3488 34.8556Z" fill="#D85140"/>
<path d="M30.3359 37.9166C31.0967 37.9166 31.8677 37.7473 32.5932 37.3833L37.6487 34.8555C40.1462 33.6068 41.1573 30.5709 39.9111 28.0709C38.6598 25.571 35.6214 24.5573 33.1265 25.8086L28.071 28.3364C25.5735 29.5851 24.5624 32.6209 25.8086 35.1209C26.6984 36.8954 28.483 37.9166 30.3359 37.9166Z" fill="#D85140"/>
</svg>
