<svg width="27" height="27" viewBox="0 0 27 27" fill="none" xmlns="http://www.w3.org/2000/svg">
<path d="M13.5 0C6.048 0 0 5.98819 0 13.3665C0 20.7448 6.048 26.733 13.5 26.733C20.952 26.733 27 20.7448 27 13.3665C27 5.98819 20.952 0 13.5 0ZM18.9 14.7032H14.85V18.7131C14.85 19.4483 14.2425 20.0498 13.5 20.0498C12.7575 20.0498 12.15 19.4483 12.15 18.7131V14.7032H8.1C7.3575 14.7032 6.75 14.1017 6.75 13.3665C6.75 12.6313 7.3575 12.0299 8.1 12.0299H12.15V8.0199C12.15 7.28474 12.7575 6.68325 13.5 6.68325C14.2425 6.68325 14.85 7.28474 14.85 8.0199V12.0299H18.9C19.6425 12.0299 20.25 12.6313 20.25 13.3665C20.25 14.1017 19.6425 14.7032 18.9 14.7032Z" fill="white" fill-opacity="0.5"/>
</svg>
