<svg width="97" height="105" viewBox="0 0 97 105" fill="none" xmlns="http://www.w3.org/2000/svg">
<rect width="97" height="105" fill="white"/>
<path d="M71.194 41.0834C75.7631 37.9903 78.8125 32.5128 78.8125 26.25C78.8125 16.5856 71.5739 8.75 62.6458 8.75C53.7178 8.75 46.4792 16.5856 46.4792 26.25C46.4792 32.5128 49.5286 37.9903 54.0977 41.0834C51.2221 42.2581 48.6132 44.0016 46.3761 46.1956C45.489 37.4391 38.6383 30.625 30.3125 30.625C21.3845 30.625 14.1458 38.4606 14.1458 48.125C14.1458 54.3878 17.1953 59.8653 21.7644 62.9584C12.5938 66.7013 6.0625 76.2606 6.0625 87.5H54.5625C54.5625 78.3628 50.25 70.3259 43.7106 65.625H86.8958C86.8958 54.3856 80.3645 44.8263 71.194 41.0834ZM62.6458 43.75C65.0304 43.75 67.2857 43.1769 69.3227 42.175L62.6458 52.5L55.969 42.175C58.006 43.1769 60.2613 43.75 62.6458 43.75ZM30.3125 65.625C32.6971 65.625 34.9523 65.0519 36.9893 64.05L30.3125 74.375L23.6357 64.05C25.6727 65.0519 27.9279 65.625 30.3125 65.625Z" fill="black"/>
</svg>
